<svg xmlns="http://www.w3.org/2000/svg">
    <style>
        .t { fill: #000 }
        .d { fill: #0084ff}
        @media (prefers-color-scheme:dark) {
            .t { fill: #fff }
        }
    </style>
    <path class="t" d="M31.115 33.02c-.988-3.457-2.893-6.28-5.644-8.467-2.893-2.187-6.068-3.316-9.596-3.316-4.445 0-8.255 1.623-11.29 4.798C1.482 29.21 0 33.02 0 37.394c0 4.445 1.481 8.184 4.586 11.43 1.411 1.482 3.034 2.681 5.01 3.528 1.904.846 3.88 1.27 5.855 1.27s3.74-.212 5.292-.776c4.939-1.764 8.326-5.08 10.09-10.09h-5.575c-.988 1.765-2.258 3.176-3.95 4.234-1.694.988-3.458 1.552-5.434 1.552-3.034 0-5.574-1.129-7.69-3.316s-3.175-4.798-3.175-7.761 1.058-5.574 3.175-7.761c.987-.988 2.116-1.835 3.457-2.399 1.27-.564 2.893-.847 4.727-.847s3.598.565 5.433 1.835a10.943 10.943 0 013.951 4.798zm12.734 19.896V-.001H38.91v52.917zm36.033-15.663c0 3.104-1.129 5.715-3.316 7.902-2.258 2.258-4.869 3.316-7.973 3.316s-5.786-1.058-7.973-3.316c-2.258-2.187-3.316-4.798-3.316-7.902s1.058-5.715 3.316-7.973c2.187-2.187 4.868-3.316 7.973-3.316 3.104 0 5.715 1.129 7.973 3.316 2.187 2.258 3.316 4.868 3.316 7.973zm4.939 0c0-4.445-1.623-8.255-4.798-11.43s-6.985-4.798-11.43-4.798c-4.516 0-8.326 1.623-11.501 4.798s-4.727 6.985-4.727 11.43c0 4.516 1.552 8.326 4.727 11.43 3.175 3.175 7.056 4.727 11.501 4.727 4.374 0 8.255-1.552 11.43-4.727 3.175-3.104 4.798-6.914 4.798-11.43zm29.971 10.372v5.292h4.939V21.873h-4.94v12.982c0 4.374-.846 7.69-2.468 10.16-1.553 2.399-4.304 3.669-8.114 3.669-2.117 0-3.67-.777-4.586-2.188-.918-1.41-1.341-3.175-1.341-5.15V21.943h-4.939v19.403c0 3.598.917 6.49 2.893 8.82 1.975 2.257 4.656 3.456 8.184 3.456 4.586 0 8.043-2.046 10.372-5.997zm39.21-10.231c0 3.034-1.058 5.715-3.175 7.902-2.117 2.258-4.727 3.387-7.761 3.387-3.105 0-5.715-1.129-7.832-3.387-2.117-2.187-3.104-4.868-3.104-7.902 0-2.963.987-5.644 3.104-7.902s4.727-3.387 7.832-3.387c3.034 0 5.644 1.129 7.76 3.387s3.176 4.939 3.176 7.902zm4.939 15.522V-.001H154v27.234c-.281-.423-.634-.776-.916-1.129-2.964-3.245-6.562-4.939-10.795-4.939-4.304 0-7.903 1.694-10.866 4.94-2.823 3.245-4.234 6.984-4.234 11.288 0 4.375 1.411 8.114 4.234 11.29 2.963 3.315 6.561 4.938 10.866 4.938 4.233 0 7.831-1.623 10.795-4.939.282-.282.635-.635.917-1.058v5.292zm6.731-26.458h7.761v26.458h4.939V26.458h7.69v-4.586h-7.69V9.807h-4.939v12.065h-7.761zm52.43 10.795c0 3.104-1.129 5.715-3.316 7.902-2.258 2.258-4.869 3.316-7.973 3.316s-5.786-1.058-7.973-3.316c-2.258-2.187-3.316-4.798-3.316-7.902s1.058-5.715 3.316-7.973c2.187-2.187 4.868-3.316 7.973-3.316 3.104 0 5.715 1.129 7.973 3.316 2.187 2.258 3.316 4.868 3.316 7.973zm4.939 0c0-4.445-1.623-8.255-4.798-11.43s-6.985-4.798-11.43-4.798c-4.516 0-8.326 1.623-11.501 4.798-3.175 3.175-4.727 6.985-4.727 11.43 0 4.516 1.552 8.326 4.727 11.43 3.175 3.175 7.056 4.727 11.501 4.727 4.374 0 8.255-1.552 11.43-4.727 3.175-3.104 4.798-6.914 4.798-11.43zm13.811 15.663V21.872h-4.939v31.044zM272.382 37.394c0 3.034-1.058 5.715-3.175 7.902-2.117 2.258-4.727 3.387-7.761 3.387-3.105 0-5.715-1.129-7.832-3.387-2.117-2.187-3.104-4.868-3.104-7.902 0-2.963.987-5.644 3.104-7.902s4.727-3.387 7.832-3.387c3.034 0 5.644 1.129 7.76 3.387s3.176 4.939 3.176 7.902zm4.939 15.522V-.001h-4.94v27.234c-.281-.423-.634-.776-.916-1.129-2.964-3.245-6.562-4.939-10.795-4.939-4.304 0-7.903 1.694-10.866 4.94-2.823 3.245-4.234 6.984-4.234 11.288 0 4.375 1.411 8.114 4.234 11.29 2.963 3.315 6.561 4.938 10.866 4.938 4.233 0 7.831-1.623 10.795-4.939.282-.282.635-.635.917-1.058v5.292z" />
    <circle class="d" cx="234" cy="14.6" r="4.6" />
</svg>