<?xml version="1.0" encoding="UTF-8" standalone="no"?>
<svg
   xmlns:dc="http://purl.org/dc/elements/1.1/"
   xmlns:cc="http://creativecommons.org/ns#"
   xmlns:rdf="http://www.w3.org/1999/02/22-rdf-syntax-ns#"
   xmlns:svg="http://www.w3.org/2000/svg"
   xmlns="http://www.w3.org/2000/svg"
   xmlns:sodipodi="http://sodipodi.sourceforge.net/DTD/sodipodi-0.dtd"
   xmlns:inkscape="http://www.inkscape.org/namespaces/inkscape"
   inkscape:version="1.0beta2 (2b71d25, 2019-12-03)"
   sodipodi:docname="cloudtoid-white-gray.svg"
   id="svg857"
   viewBox="0 0 277.32 53.622"
   version="1.1"
   height="53.622mm"
   width="277.32mm">
  <metadata
     id="metadata863">
    <rdf:RDF>
      <cc:Work
         rdf:about="">
        <dc:format>image/svg+xml</dc:format>
        <dc:type
           rdf:resource="http://purl.org/dc/dcmitype/StillImage" />
        <dc:title></dc:title>
      </cc:Work>
    </rdf:RDF>
  </metadata>
  <defs
     id="defs861" />
  <sodipodi:namedview
     inkscape:pagecheckerboard="true"
     inkscape:current-layer="g855"
     inkscape:window-maximized="0"
     inkscape:window-y="0"
     inkscape:window-x="0"
     inkscape:cy="351.42456"
     inkscape:cx="118.7597"
     inkscape:zoom="0.51838682"
     showgrid="false"
     id="namedview859"
     inkscape:window-height="1050"
     inkscape:window-width="1680"
     inkscape:pageshadow="2"
     inkscape:pageopacity="0"
     guidetolerance="10"
     gridtolerance="10"
     objecttolerance="10"
     borderopacity="1"
     inkscape:document-rotation="0"
     bordercolor="#666666"
     pagecolor="#ffffff" />
  <g
     id="g855"
     stroke-width=".26458"
     transform="translate(-6.7581 -35.53)">
    <g
       style="fill:#000000"
       id="g849">
      <path
         style="fill:#000000"
         id="path833"
         d="m37.873 68.55c-0.98778-3.4572-2.8928-6.2794-5.6444-8.4667-2.8928-2.1872-6.0678-3.3161-9.5956-3.3161-4.445 0-8.255 1.6228-11.289 4.7978-3.1044 3.175-4.5861 6.985-4.5861 11.359 0 4.445 1.4817 8.1844 4.5861 11.43 1.4111 1.4817 3.0339 2.6811 5.0094 3.5278 1.905 0.84667 3.8806 1.27 5.8561 1.27s3.7394-0.21167 5.2917-0.77611c4.9389-1.7639 8.3256-5.08 10.089-10.089h-5.5739c-0.98778 1.7639-2.2578 3.175-3.9511 4.2333-1.6933 0.98778-3.4572 1.5522-5.4328 1.5522-3.0339 0-5.5739-1.1289-7.6906-3.3161-2.1167-2.1872-3.175-4.7978-3.175-7.7611 0-2.9633 1.0583-5.5739 3.175-7.7611 0.98778-0.98778 2.1167-1.8344 3.4572-2.3989 1.27-0.56444 2.8928-0.84667 4.7272-0.84667 1.8344 0 3.5983 0.56444 5.4328 1.8344 1.7639 1.1994 3.1044 2.8222 3.9511 4.7978z" />
      <path
         style="fill:#000000"
         id="path835"
         d="m50.607 88.446v-52.917h-4.9389v52.917z" />
      <path
         style="fill:#000000"
         id="path837"
         d="m86.64 72.783c0 3.1044-1.1289 5.715-3.3161 7.9022-2.2578 2.2578-4.8683 3.3161-7.9728 3.3161-3.1044 0-5.7856-1.0583-7.9728-3.3161-2.2578-2.1872-3.3161-4.7978-3.3161-7.9022 0-3.1044 1.0583-5.715 3.3161-7.9728 2.1872-2.1872 4.8683-3.3161 7.9728-3.3161 3.1044 0 5.715 1.1289 7.9728 3.3161 2.1872 2.2578 3.3161 4.8683 3.3161 7.9728zm4.9389 0c0-4.445-1.6228-8.255-4.7978-11.43s-6.985-4.7978-11.43-4.7978c-4.5156 0-8.3256 1.6228-11.501 4.7978s-4.7272 6.985-4.7272 11.43c0 4.5156 1.5522 8.3256 4.7272 11.43 3.175 3.175 7.0556 4.7272 11.501 4.7272 4.3744 0 8.255-1.5522 11.43-4.7272 3.175-3.1044 4.7978-6.9144 4.7978-11.43z" />
      <path
         style="fill:#000000"
         id="path839"
         d="m121.55 83.155v5.2917h4.9389v-31.044h-4.9389v12.982c0 4.3744-0.84667 7.6906-2.4694 10.16-1.5522 2.3989-4.3039 3.6689-8.1139 3.6689-2.1167 0-3.6689-0.77611-4.5861-2.1872-0.91722-1.4111-1.3406-3.175-1.3406-5.1506v-19.403h-4.9389v19.403c0 3.5983 0.91722 6.4911 2.8928 8.8195 1.9756 2.2578 4.6567 3.4572 8.1844 3.4572 4.5861 0 8.0433-2.0461 10.372-5.9972z" />
      <path
         style="fill:#000000"
         id="path841"
         d="m160.76 72.924c0 3.0339-1.0583 5.715-3.175 7.9022-2.1167 2.2578-4.7272 3.3867-7.7611 3.3867-3.1044 0-5.715-1.1289-7.8317-3.3867-2.1167-2.1872-3.1044-4.8683-3.1044-7.9022 0-2.9633 0.98778-5.6444 3.1044-7.9022 2.1167-2.2578 4.7272-3.3867 7.8317-3.3867 3.0339 0 5.6444 1.1289 7.7611 3.3867 2.1167 2.2578 3.175 4.9389 3.175 7.9022zm4.9389 15.522v-52.917h-4.9389v27.234c-0.28223-0.42333-0.635-0.77611-0.91723-1.1289-2.9633-3.2456-6.5617-4.9389-10.795-4.9389-4.3039 0-7.9022 1.6933-10.866 4.9389-2.8222 3.2456-4.2333 6.985-4.2333 11.289 0 4.3744 1.4111 8.1139 4.2333 11.289 2.9633 3.3161 6.5617 4.9389 10.866 4.9389 4.2333 0 7.8317-1.6228 10.795-4.9389 0.28223-0.28222 0.635-0.635 0.91723-1.0583v5.2917z" />
      <path
         style="fill:#000000"
         id="path843"
         d="m172.43 61.988h7.7611v26.458h4.9389v-26.458h7.6906v-4.5861h-7.6906v-12.065h-4.9389v12.065h-7.7611z" />
      <path
         style="fill:#000000"
         id="path845"
         d="m224.86 72.783c0 3.1044-1.1289 5.715-3.3161 7.9022-2.2578 2.2578-4.8683 3.3161-7.9728 3.3161-3.1044 0-5.7856-1.0583-7.9728-3.3161-2.2578-2.1872-3.3161-4.7978-3.3161-7.9022 0-3.1044 1.0583-5.715 3.3161-7.9728 2.1872-2.1872 4.8683-3.3161 7.9728-3.3161 3.1044 0 5.715 1.1289 7.9728 3.3161 2.1872 2.2578 3.3161 4.8683 3.3161 7.9728zm4.9389 0c0-4.445-1.6228-8.255-4.7978-11.43-3.175-3.175-6.985-4.7978-11.43-4.7978-4.5156 0-8.3256 1.6228-11.501 4.7978-3.175 3.175-4.7272 6.985-4.7272 11.43 0 4.5156 1.5522 8.3256 4.7272 11.43 3.175 3.175 7.0556 4.7272 11.501 4.7272 4.3744 0 8.255-1.5522 11.43-4.7272 3.175-3.1044 4.7978-6.9144 4.7978-11.43z" />
      <path
         style="fill:#000000"
         id="path847"
         d="m243.61 88.446v-31.044h-4.9389v31.044z" />
    </g>
    <path
       inkscape:connector-curvature="0"
       style="opacity:1;stroke-width:0.390181;fill:#999999"
       id="path851"
       fill="#f00"
       d="m 244.50282,46.838877 c -0.93645,-0.832391 -2.08097,-1.352643 -3.32962,-1.352643 -1.2486,0 -2.39317,0.520252 -3.2255,1.352643 -0.93645,0.936447 -1.35265,2.080977 -1.35265,3.329623 0,1.248602 0.4162,2.393175 1.35265,3.225508 0.8324,0.936447 1.97701,1.352643 3.2255,1.352643 1.24859,0 2.39317,-0.416196 3.32962,-1.352643 0.8324,-0.832391 1.35265,-1.97701 1.35265,-3.225508 0,-1.248601 -0.52025,-2.393176 -1.35265,-3.329623 z" />
    <path
       style="fill:#000000"
       id="path853"
       d="m279.14 72.924c0 3.0339-1.0583 5.715-3.175 7.9022-2.1167 2.2578-4.7272 3.3867-7.7611 3.3867-3.1044 0-5.715-1.1289-7.8317-3.3867-2.1167-2.1872-3.1044-4.8683-3.1044-7.9022 0-2.9633 0.98778-5.6444 3.1044-7.9022s4.7272-3.3867 7.8317-3.3867c3.0339 0 5.6444 1.1289 7.7611 3.3867s3.175 4.9389 3.175 7.9022zm4.9389 15.522v-52.917h-4.9389v27.234c-0.28222-0.42333-0.635-0.77611-0.91722-1.1289-2.9633-3.2456-6.5617-4.9389-10.795-4.9389-4.3039 0-7.9022 1.6933-10.866 4.9389-2.8222 3.2456-4.2333 6.985-4.2333 11.289 0 4.3744 1.4111 8.1139 4.2333 11.289 2.9633 3.3161 6.5617 4.9389 10.866 4.9389 4.2333 0 7.8317-1.6228 10.795-4.9389 0.28222-0.28222 0.635-0.635 0.91722-1.0583v5.2917z" />
  </g>
</svg>
